<svg id="Layer_1" data-name="Layer 1" xmlns="http://www.w3.org/2000/svg" viewBox="0 0 512 512"><title>graph-bars-glyph</title><path d="M150.18,501.75A10.26,10.26,0,0,1,139.93,512H13.65A10.24,10.24,0,0,1,3.42,501.75V163.83A10.23,10.23,0,0,1,13.65,153.6H139.93a10.25,10.25,0,0,1,10.25,10.23Z" fill="#212121"/><path d="M329.38,501.75A10.26,10.26,0,0,1,319.14,512H192.85a10.25,10.25,0,0,1-10.24-10.25V10.23A10.24,10.24,0,0,1,192.85,0H319.14a10.24,10.24,0,0,1,10.24,10.23Z" fill="#212121"/><path d="M508.58,501.75A10.26,10.26,0,0,1,498.33,512H372a10.26,10.26,0,0,1-10.23-10.25V266.23A10.24,10.24,0,0,1,372,256H498.33a10.25,10.25,0,0,1,10.25,10.23Z" fill="#212121"/></svg>