<svg xmlns="http://www.w3.org/2000/svg"  viewBox="0 0 40 40" width="40px" height="40px"><path fill="#f5c276" d="M22.5,27.5h4v11h-4V27.5z"/><path fill="#c29653" d="M26,28v10h-3V28H26 M27,27h-5v12h5V27L27,27z"/><path fill="#8bb7f0" d="M6.5,27.5V14c0-3.6,2.9-6.5,6.5-6.5h19c3.6,0,6.5,2.9,6.5,6.5v13.5H6.5z"/><path fill="#4e7ab5" d="M32,8c3.3,0,6,2.7,6,6v13H7V14c0-3.3,2.7-6,6-6H32 M32,7H13c-3.9,0-7,3.1-7,7v14h33V14C39,10.1,35.8,7,32,7	L32,7z"/><path fill="#8bb7f0" d="M6.5,27.5V13.9c0-3.4,3-6.4,6.5-6.4c3.6,0,6.5,2.9,6.5,6.5v13.5H6.5z"/><path fill="#4e7ab5" d="M13,8c3.3,0,6,2.7,6,6v13H7V13.9C7,10.7,9.7,8,13,8 M13,7c-3.9,0-7,3.1-7,6.9V28h14V14C20,10.1,16.9,7,13,7	L13,7z"/><path fill="#f78f8f" d="M32.5,12.5h3v5h-3V12.5z"/><path fill="#c74343" d="M25,12v1h7v5h4v-5v-0.9V12H25z M35,17h-2v-4h2V17z"/><path fill="#f78f8f" d="M24.5,11.5c-0.6,0-1,0.4-1,1s0.4,1,1,1s1-0.4,1-1S25.1,11.5,24.5,11.5z"/><path fill="#c74343" d="M24.5,12c0.3,0,0.5,0.2,0.5,0.5S24.8,13,24.5,13S24,12.8,24,12.5S24.2,12,24.5,12 M24.5,11 c-0.8,0-1.5,0.7-1.5,1.5s0.7,1.5,1.5,1.5s1.5-0.7,1.5-1.5S25.3,11,24.5,11L24.5,11z"/><g><path fill="#8bb7f0" d="M9,15h8v1H9V15z"/><path fill="#4e7ab5" d="M17,15H9v1h8V15z"/></g></svg>