<svg xmlns="http://www.w3.org/2000/svg" xmlns:xlink="http://www.w3.org/1999/xlink" viewBox="0 0 26 26" fill="#5B5B5B">
  <path d="M21 0C18.238281 0 16 2.238281 16 5C16 5.085938 16.027344 5.164063 16.03125 5.25L8.1875 9.1875C7.320313 8.457031 6.222656 8 5 8C2.238281 8 0 10.238281 0 13C0 15.761719 2.238281 18 5 18C6.222656 18 7.320313 17.542969 8.1875 16.8125L16.03125 20.75C16.027344 20.835938 16 20.914063 16 21C16 23.761719 18.238281 26 21 26C23.761719 26 26 23.761719 26 21C26 18.238281 23.761719 16 21 16C19.777344 16 18.679688 16.457031 17.8125 17.1875L9.96875 13.25C9.972656 13.164063 10 13.085938 10 13C10 12.914063 9.972656 12.835938 9.96875 12.75L17.8125 8.8125C18.679688 9.542969 19.777344 10 21 10C23.761719 10 26 7.761719 26 5C26 2.238281 23.761719 0 21 0Z" fill="#5B5B5B" />
</svg>