<?xml version="1.0" ?>
<!-- Uploaded to: SVG Repo, www.svgrepo.com, Generator: SVG Repo Mixer Tools -->
<svg width="800px" height="800px" viewBox="0 0 48 48" id="svg5" version="1.1" xml:space="preserve" xmlns="http://www.w3.org/2000/svg" xmlns:svg="http://www.w3.org/2000/svg">
<defs id="defs2"/>
<g id="layer1" transform="translate(-170.00002,-233)">
<path d="m 191,238.01064 c -0.55226,6e-5 -0.99996,0.44774 -1,1 v 4 c 4e-5,0.55226 0.44774,0.99994 1,1 h 10 c 0.55224,-6e-5 0.99994,-0.44774 1,-1 v -4 c -6e-5,-0.55226 -0.44776,-0.99994 -1,-1 z m 1,2 h 8 v 2 h -8 z" id="rect9411" style="color:#000000;fill:#808b9b;fill-opacity:1;fill-rule:evenodd;stroke-linecap:round;stroke-linejoin:round;stroke-miterlimit:4.1;-inkscape-stroke:none"/>
<rect height="14.999994" id="rect12029" style="fill:#f8f8f8;fill-opacity:1;fill-rule:evenodd;stroke:none;stroke-width:2.00001;stroke-linecap:round;stroke-linejoin:round;stroke-miterlimit:4.1;stroke-opacity:1" width="34" x="179" y="250"/>
<path d="M 189.5,271 H 202 c 1.10457,0 2,0.89543 2,2 0,1.10457 -0.89543,2 -2,2 h -12.5 c -1.10457,0 -2,-0.89543 -2,-2 0,-1.10457 0.89543,-2 2,-2 z" id="path14151" style="color:#000000;fill:#e7e7e7;fill-opacity:1;fill-rule:evenodd;stroke-width:2;stroke-linecap:round;stroke-linejoin:round;stroke-miterlimit:4.1"/>
<path d="m 189.5,271.0332 c -1.09339,0 -1.98017,0.87767 -1.99805,1.9668 h 11.61133 c 1.09339,0 1.98017,-0.87768 1.99805,-1.9668 z" id="path14324" style="color:#000000;fill:#f8f8f8;fill-opacity:1;fill-rule:evenodd;stroke-width:2;stroke-linecap:round;stroke-linejoin:round;stroke-miterlimit:4.1;-inkscape-stroke:none"/>
<path d="M 189.5,263 H 202 c 1.10457,0 2,0.89543 2,2 0,1.10457 -0.89543,2 -2,2 h -12.5 c -1.10457,0 -2,-0.89543 -2,-2 0,-1.10457 0.89543,-2 2,-2 z" id="path14163" style="color:#000000;fill:#e7e7e7;fill-opacity:1;fill-rule:evenodd;stroke-width:2;stroke-linecap:round;stroke-linejoin:round;stroke-miterlimit:4.1;-inkscape-stroke:none"/>
<path d="m 189.5,263 c -1.09339,0 -1.98017,0.87767 -1.99805,1.9668 h 11.61133 c 1.09339,0 1.98017,-0.87768 1.99805,-1.9668 z" id="path14317" style="color:#000000;fill:#f8f8f8;fill-opacity:1;fill-rule:evenodd;stroke-width:2;stroke-linecap:round;stroke-linejoin:round;stroke-miterlimit:4.1;-inkscape-stroke:none"/>
<path d="M 189.5,267 H 202 c 1.10457,0 2,0.89543 2,2 0,1.10457 -0.89543,2 -2,2 h -12.5 c -1.10457,0 -2,-0.89543 -2,-2 0,-1.10457 0.89543,-2 2,-2 z" id="path14157" style="color:#000000;fill:#e7e7e7;fill-opacity:1;fill-rule:evenodd;stroke-width:2;stroke-linecap:round;stroke-linejoin:round;stroke-miterlimit:4.1"/>
<path d="m 189.5,267.0332 c -1.09339,0 -1.98017,0.87767 -1.99805,1.9668 h 11.61133 c 1.09339,0 1.98017,-0.87768 1.99805,-1.9668 z" id="path14322" style="color:#000000;fill:#f8f8f8;fill-opacity:1;fill-rule:evenodd;stroke-width:2;stroke-linecap:round;stroke-linejoin:round;stroke-miterlimit:4.1;-inkscape-stroke:none"/>
<path d="m 179.00001,242.00001 h 33.99997 v 9 A 2.99998,2.99998 0 0 1 210,253.99999 h -28.00001 a 2.99998,2.99998 0 0 1 -2.99998,-2.99998 z" id="rect12811" style="fill:#e7e7e7;fill-opacity:1;fill-rule:evenodd;stroke:none;stroke-width:2.00001;stroke-linecap:round;stroke-linejoin:round;stroke-miterlimit:4.1"/>
<path d="m 179,242 v 9 a 2.99998,2.99998 61.139796 0 0 3,3 h 28 a 2.99998,2.99998 61.139796 0 0 1.02344,-0.20313 22.384022,12.643429 17.84668 0 0 -16.80664,-11.5371 22.384022,12.643429 17.84668 0 0 -0.98829,-0.25974 z" id="path18030" style="fill:#f8f8f8;fill-opacity:1;fill-rule:evenodd;stroke:none;stroke-width:2;stroke-linecap:round;stroke-linejoin:round;stroke-miterlimit:4.1;stroke-opacity:1"/>
<rect height="7" id="rect15759" style="fill:#ff5576;fill-opacity:1;fill-rule:evenodd;stroke:none;stroke-width:2;stroke-linecap:round;stroke-linejoin:round;stroke-miterlimit:4.1;stroke-opacity:1" width="4" x="194" y="251"/>
<path d="m 190.99998,268.00002 c 0,4.41826 -3.58171,7.99998 -7.99998,7.99998 -4.41828,0 -8,-3.58172 -8,-7.99998 0,-4.41827 3.58172,-8 8,-8 4.41827,0 7.99998,3.58173 7.99998,8 z" id="path15749" style="fill:#f2a50c;fill-opacity:1;fill-rule:evenodd;stroke:none;stroke-width:2;stroke-linecap:round;stroke-linejoin:round;stroke-miterlimit:4.1;stroke-opacity:1"/>
<path d="m 183,260 c -4.41828,0 -8,3.58173 -8,8 0,1.31229 0.31694,2.54981 0.87695,3.64258 a 8.4079046,8.4150772 0 0 0 3.00782,0.57812 8.4079046,8.4150772 0 0 0 8.4082,-8.41406 8.4079046,8.4150772 0 0 0 -0.49805,-2.85156 C 185.66557,260.34526 184.37352,260 183,260 Z" id="path14097" style="fill:#f7c63d;fill-opacity:1;fill-rule:evenodd;stroke:none;stroke-width:2;stroke-linecap:round;stroke-linejoin:round;stroke-miterlimit:4.1;stroke-opacity:1"/>
<path d="m 183,261.6582 a 1.005548,0.99447354 0 0 0 -1.00586,0.99415 v 0.88671 c -1.10669,0.39535 -1.92187,1.41989 -1.92187,2.63868 0,1.5666 1.34574,2.8164 2.92773,2.8164 0.54071,0 0.91602,0.38352 0.91602,0.82813 -1e-5,0.44462 -0.37532,0.82422 -0.91602,0.82422 -0.5407,0 -0.91602,-0.3796 -0.91602,-0.82422 a 1.005548,0.99447354 0 0 0 -1.00586,-0.9961 1.005548,0.99447354 0 0 0 -1.00585,0.9961 c 0,1.21879 0.81518,2.24333 1.92187,2.63866 v 0.88673 A 1.005548,0.99447354 0 0 0 183,274.3418 a 1.005548,0.99447354 0 0 0 1.00391,-0.99414 v -0.88477 c 1.10746,-0.39472 1.92187,-1.42096 1.92187,-2.64062 0,-1.5666 -1.3438,-2.81641 -2.92578,-2.81641 -0.54071,0 -0.91602,-0.38349 -0.91602,-0.82812 0,-0.44463 0.3753,-0.82423 0.91602,-0.82423 0.54071,0 0.91602,0.3796 0.91602,0.82423 a 1.005548,0.99447354 0 0 0 1.00585,0.99609 1.005548,0.99447354 0 0 0 1.00391,-0.99609 c 0,-1.21966 -0.81441,-2.24591 -1.92187,-2.64063 v -0.88476 A 1.005548,0.99447354 0 0 0 183,261.6582 Z" id="path13945" style="color:#000000;fill:#808b9b;fill-opacity:1;fill-rule:evenodd;stroke:none;stroke-width:0.999995;stroke-linecap:round;stroke-linejoin:round;stroke-miterlimit:4.1;stroke-opacity:1"/>
</g>
</svg>